<svg width="1235" height="438" viewBox="0 0 1235 438" fill="none" xmlns="http://www.w3.org/2000/svg">
<path d="M0.428527 367.166L41.672 378.297C82.9265 390.306 165.397 411.248 247.009 364.061C328.621 316.873 470.092 182.672 552 159C633.897 134.449 719.307 218.035 801.5 217C883.694 215.965 901.9 144.796 983.504 96.9492C1065.1 48.2231 1147.01 25.2105 1187.95 12.1658L1228.9 0.0002147L1234.22 421.967L1193.12 422.484C1152.02 423.002 1069.83 424.037 987.636 425.072C905.443 426.107 823.249 427.142 741.056 428.178C658.862 429.213 576.669 430.248 494.475 431.283C412.282 432.318 330.088 433.353 247.895 434.388C165.701 435.424 83.5077 436.459 42.411 436.976L1.31423 437.494L0.428527 367.166Z" fill="#FB9AD1"/>
</svg>
