<svg width="819" height="425" viewBox="0 0 819 425" fill="none" xmlns="http://www.w3.org/2000/svg">
<path d="M765.004 2.48047C737.704 -10.0477 709.8 26.6575 655.2 72.8138C655.2 72.8138 573.604 171.842 519.004 194.48C464.404 217.998 382.2 194.48 327.6 194.48C273 194.48 218.4 283.814 163.8 330.629C109.2 378.324 54.6 400.303 27.3 412.832L0 424.48V2.48047H27.3C54.6 2.48047 109.2 2.48047 163.8 2.48047C218.4 2.48047 273 2.48047 327.6 2.48047C382.2 2.48047 436.8 2.48047 491.4 2.48047C546 2.48047 600.6 2.48047 655.2 2.48047C709.8 2.48047 764.4 2.48047 791.7 2.48047H819H765.004Z" fill="#FFCDEA"/>
</svg>
