<svg width="1993" height="547" viewBox="0 0 1993 547" fill="none" xmlns="http://www.w3.org/2000/svg">
<path d="M0.195123 470.975L0.195312 0.5C65.9564 13.2146 225.776 373.283 357.5 327.5C489.224 281.717 681.34 215.645 813 192.5C944.659 169.355 1167.51 393.627 1299.1 394C1430.69 394.373 1481.77 354.942 1613.5 308.5C1745.23 261.178 1992.5 443.81 1992.5 443.81L1973.89 443.81L1973.89 546.904L1908.1 546.718C1842.3 546.531 1710.71 546.158 1579.11 545.785C1447.52 545.412 1315.93 545.039 1184.33 544.666C1052.74 544.293 921.148 543.92 789.555 543.547C657.962 543.174 526.369 542.801 394.775 542.428C263.182 542.054 131.589 541.681 65.7923 541.495L-0.00426161 541.308L0.195123 470.975Z" fill="#BC7FCD"/>
</svg>
