<svg width="1993" height="523" viewBox="0 0 1993 523" fill="none" xmlns="http://www.w3.org/2000/svg">
<path d="M0.195568 446.975L0.199219 0C65.9603 12.7146 225.776 349.283 357.5 303.5C489.224 257.717 681.34 191.645 813 168.5C944.66 145.355 1167.51 369.627 1299.1 370C1430.69 370.373 1481.77 330.942 1613.5 284.5C1745.23 237.178 1992.5 419.81 1992.5 419.81L1973.89 419.81L1973.89 522.904L1908.1 522.718C1842.3 522.531 1710.71 522.158 1579.11 521.785C1447.52 521.412 1315.93 521.039 1184.33 520.666C1052.74 520.293 921.148 519.92 789.555 519.547C657.962 519.174 526.369 518.801 394.776 518.428C263.183 518.054 131.589 517.681 65.7928 517.495L-0.00381644 517.308L0.195568 446.975Z" fill="#BC7FCD"/>
</svg>
