<svg width="1273" height="422" viewBox="0 0 1273 422" fill="none" xmlns="http://www.w3.org/2000/svg">
<path d="M1273 70.3333L1230.57 58.6844C1188.13 46.1563 1103.27 24.1771 1018.4 70.3333C933.533 116.49 848.667 235.177 763.8 257.816C678.933 281.333 594.067 216 509.2 216C424.333 216 339.467 280.454 254.6 328.149C169.733 375.844 84.8667 397.823 42.4333 410.351L0 422V0H42.4333C84.8667 0 169.733 0 254.6 0C339.467 0 424.333 0 509.2 0C594.067 0 678.933 0 763.8 0C848.667 0 933.533 0 1018.4 0C1103.27 0 1188.13 0 1230.57 0H1273V70.3333Z" fill="#86469C"/>
</svg>
